<mxfile host="app.diagrams.net" modified="2021-11-15T20:01:38.813Z" agent="5.0 (Windows NT 10.0; Win64; x64) AppleWebKit/537.36 (KHTML, like Gecko) Chrome/95.0.4638.69 Safari/537.36" etag="11sLMohp-T9T3soPia23" version="15.7.4" type="github">
  <diagram id="R2lEEEUBdFMjLlhIrx00" name="Page-1">
    <mxGraphModel dx="1736" dy="786" grid="1" gridSize="10" guides="1" tooltips="1" connect="1" arrows="1" fold="1" page="1" pageScale="1" pageWidth="850" pageHeight="1100" math="0" shadow="0" extFonts="Permanent Marker^https://fonts.googleapis.com/css?family=Permanent+Marker">
      <root>
        <mxCell id="0" />
        <mxCell id="1" parent="0" />
        <mxCell id="lNvT-IO2UylSkOYxrjQw-61" style="rounded=0;orthogonalLoop=1;jettySize=auto;html=1;exitX=0.5;exitY=0;exitDx=0;exitDy=0;startArrow=none;startFill=0;edgeStyle=orthogonalEdgeStyle;endArrow=none;endFill=0;strokeColor=#5E5E5E;strokeWidth=1.5;" edge="1" parent="1" source="lNvT-IO2UylSkOYxrjQw-1" target="lNvT-IO2UylSkOYxrjQw-54">
          <mxGeometry relative="1" as="geometry" />
        </mxCell>
        <mxCell id="lNvT-IO2UylSkOYxrjQw-62" style="rounded=0;orthogonalLoop=1;jettySize=auto;html=1;exitX=0.75;exitY=0;exitDx=0;exitDy=0;entryX=0.5;entryY=1;entryDx=0;entryDy=0;startArrow=none;startFill=0;edgeStyle=orthogonalEdgeStyle;endArrow=none;endFill=0;strokeColor=#5E5E5E;strokeWidth=1.5;" edge="1" parent="1" source="lNvT-IO2UylSkOYxrjQw-1" target="lNvT-IO2UylSkOYxrjQw-55">
          <mxGeometry relative="1" as="geometry" />
        </mxCell>
        <mxCell id="lNvT-IO2UylSkOYxrjQw-63" style="rounded=0;orthogonalLoop=1;jettySize=auto;html=1;exitX=0.935;exitY=0.015;exitDx=0;exitDy=0;entryX=0;entryY=0.5;entryDx=0;entryDy=0;startArrow=none;startFill=0;edgeStyle=orthogonalEdgeStyle;endArrow=none;endFill=0;strokeColor=#5E5E5E;exitPerimeter=0;strokeWidth=1.5;" edge="1" parent="1" source="lNvT-IO2UylSkOYxrjQw-1" target="lNvT-IO2UylSkOYxrjQw-56">
          <mxGeometry relative="1" as="geometry" />
        </mxCell>
        <mxCell id="lNvT-IO2UylSkOYxrjQw-64" style="rounded=0;orthogonalLoop=1;jettySize=auto;html=1;exitX=1;exitY=0.25;exitDx=0;exitDy=0;entryX=0.5;entryY=1;entryDx=0;entryDy=0;startArrow=none;startFill=0;edgeStyle=orthogonalEdgeStyle;endArrow=none;endFill=0;strokeColor=#5E5E5E;strokeWidth=1.5;" edge="1" parent="1" source="lNvT-IO2UylSkOYxrjQw-1" target="lNvT-IO2UylSkOYxrjQw-57">
          <mxGeometry relative="1" as="geometry" />
        </mxCell>
        <UserObject label="Cliente" lucidchartObjectId="c-~rMUh_shUD" id="lNvT-IO2UylSkOYxrjQw-1">
          <mxCell style="html=1;overflow=block;blockSpacing=1;whiteSpace=wrap;;whiteSpace=wrap;fontSize=16.7;fontColor=#333333;align=center;spacing=9;strokeColor=#5e5e5e;strokeOpacity=100;fillOpacity=100;rounded=1;absoluteArcSize=1;arcSize=9;fillColor=#ffdba9;strokeWidth=2.3;" vertex="1" parent="1">
            <mxGeometry x="410" y="317" width="103" height="78" as="geometry" />
          </mxCell>
        </UserObject>
        <UserObject label="atiende" lucidchartObjectId="j-~rZd.PjnW." id="lNvT-IO2UylSkOYxrjQw-2">
          <mxCell style="html=1;overflow=block;blockSpacing=1;whiteSpace=wrap;rhombus;whiteSpace=wrap;fontSize=16.7;fontColor=#333333;align=center;spacing=3.8;strokeColor=#5e5e5e;strokeOpacity=100;fillOpacity=100;rounded=1;absoluteArcSize=1;arcSize=9;fillColor=#19967d;strokeWidth=2.3;" vertex="1" parent="1">
            <mxGeometry x="642" y="317" width="103" height="78" as="geometry" />
          </mxCell>
        </UserObject>
        <UserObject label="" lucidchartObjectId="v-~rHku4ZQ13" id="lNvT-IO2UylSkOYxrjQw-3">
          <mxCell style="html=1;jettySize=18;whiteSpace=wrap;fontSize=13;strokeColor=#5E5E5E;strokeWidth=1.5;rounded=1;arcSize=12;edgeStyle=orthogonalEdgeStyle;startArrow=none;;endArrow=none;;exitX=1.011;exitY=0.5;exitPerimeter=0;entryX=0.01;entryY=0.5;entryPerimeter=0;" edge="1" parent="1" source="lNvT-IO2UylSkOYxrjQw-1" target="lNvT-IO2UylSkOYxrjQw-2">
            <mxGeometry width="100" height="100" relative="1" as="geometry">
              <Array as="points" />
            </mxGeometry>
          </mxCell>
        </UserObject>
        <mxCell id="lNvT-IO2UylSkOYxrjQw-71" style="edgeStyle=orthogonalEdgeStyle;rounded=0;orthogonalLoop=1;jettySize=auto;html=1;exitX=0;exitY=0;exitDx=0;exitDy=0;entryX=1;entryY=0.5;entryDx=0;entryDy=0;startArrow=none;startFill=0;endArrow=none;endFill=0;strokeColor=#5E5E5E;strokeWidth=1.5;" edge="1" parent="1" source="lNvT-IO2UylSkOYxrjQw-4" target="lNvT-IO2UylSkOYxrjQw-65">
          <mxGeometry relative="1" as="geometry" />
        </mxCell>
        <mxCell id="lNvT-IO2UylSkOYxrjQw-72" style="edgeStyle=orthogonalEdgeStyle;rounded=0;orthogonalLoop=1;jettySize=auto;html=1;exitX=0.25;exitY=0;exitDx=0;exitDy=0;entryX=1;entryY=0.5;entryDx=0;entryDy=0;startArrow=none;startFill=0;endArrow=none;endFill=0;strokeColor=#5E5E5E;strokeWidth=1.5;" edge="1" parent="1" source="lNvT-IO2UylSkOYxrjQw-4" target="lNvT-IO2UylSkOYxrjQw-66">
          <mxGeometry relative="1" as="geometry">
            <Array as="points">
              <mxPoint x="891" y="230" />
            </Array>
          </mxGeometry>
        </mxCell>
        <mxCell id="lNvT-IO2UylSkOYxrjQw-73" style="edgeStyle=orthogonalEdgeStyle;rounded=0;orthogonalLoop=1;jettySize=auto;html=1;exitX=0.5;exitY=0;exitDx=0;exitDy=0;entryX=0.5;entryY=1;entryDx=0;entryDy=0;startArrow=none;startFill=0;endArrow=none;endFill=0;strokeColor=#5E5E5E;strokeWidth=1.5;" edge="1" parent="1" source="lNvT-IO2UylSkOYxrjQw-4" target="lNvT-IO2UylSkOYxrjQw-67">
          <mxGeometry relative="1" as="geometry" />
        </mxCell>
        <mxCell id="lNvT-IO2UylSkOYxrjQw-74" style="edgeStyle=orthogonalEdgeStyle;rounded=0;orthogonalLoop=1;jettySize=auto;html=1;exitX=0.75;exitY=0;exitDx=0;exitDy=0;entryX=0;entryY=1;entryDx=0;entryDy=0;startArrow=none;startFill=0;endArrow=none;endFill=0;strokeColor=#5E5E5E;strokeWidth=1.5;" edge="1" parent="1" source="lNvT-IO2UylSkOYxrjQw-4" target="lNvT-IO2UylSkOYxrjQw-68">
          <mxGeometry relative="1" as="geometry">
            <Array as="points">
              <mxPoint x="942" y="233" />
              <mxPoint x="983" y="233" />
            </Array>
          </mxGeometry>
        </mxCell>
        <mxCell id="lNvT-IO2UylSkOYxrjQw-75" style="edgeStyle=orthogonalEdgeStyle;rounded=0;orthogonalLoop=1;jettySize=auto;html=1;exitX=1;exitY=0;exitDx=0;exitDy=0;entryX=0;entryY=0.5;entryDx=0;entryDy=0;startArrow=none;startFill=0;endArrow=none;endFill=0;strokeColor=#5E5E5E;strokeWidth=1.5;" edge="1" parent="1" source="lNvT-IO2UylSkOYxrjQw-4" target="lNvT-IO2UylSkOYxrjQw-69">
          <mxGeometry relative="1" as="geometry" />
        </mxCell>
        <mxCell id="lNvT-IO2UylSkOYxrjQw-76" style="edgeStyle=orthogonalEdgeStyle;rounded=0;orthogonalLoop=1;jettySize=auto;html=1;exitX=1;exitY=0.25;exitDx=0;exitDy=0;entryX=0;entryY=0.5;entryDx=0;entryDy=0;startArrow=none;startFill=0;endArrow=none;endFill=0;strokeColor=#5E5E5E;strokeWidth=1.5;" edge="1" parent="1" source="lNvT-IO2UylSkOYxrjQw-4" target="lNvT-IO2UylSkOYxrjQw-70">
          <mxGeometry relative="1" as="geometry" />
        </mxCell>
        <UserObject label="Vendedores" lucidchartObjectId="W-~rS3EuG0eZ" id="lNvT-IO2UylSkOYxrjQw-4">
          <mxCell style="html=1;overflow=block;blockSpacing=1;whiteSpace=wrap;;whiteSpace=wrap;fontSize=16.7;fontColor=#333333;align=center;spacing=9;strokeColor=#5e5e5e;strokeOpacity=100;fillOpacity=100;rounded=1;absoluteArcSize=1;arcSize=9;fillColor=#7ab648;strokeWidth=2.3;" vertex="1" parent="1">
            <mxGeometry x="865" y="317" width="103" height="78" as="geometry" />
          </mxCell>
        </UserObject>
        <UserObject label="" lucidchartObjectId="--~rPDfOq0b8" id="lNvT-IO2UylSkOYxrjQw-5">
          <mxCell style="html=1;jettySize=18;whiteSpace=wrap;fontSize=13;strokeColor=#5E5E5E;strokeWidth=1.5;rounded=1;arcSize=12;edgeStyle=orthogonalEdgeStyle;startArrow=none;;endArrow=none;;exitX=0.99;exitY=0.5;exitPerimeter=0;entryX=-0.011;entryY=0.5;entryPerimeter=0;" edge="1" parent="1" source="lNvT-IO2UylSkOYxrjQw-2" target="lNvT-IO2UylSkOYxrjQw-4">
            <mxGeometry width="100" height="100" relative="1" as="geometry">
              <Array as="points" />
            </mxGeometry>
          </mxCell>
        </UserObject>
        <UserObject label="efectua" lucidchartObjectId="k_~rCHxF_Tqn" id="lNvT-IO2UylSkOYxrjQw-6">
          <mxCell style="html=1;overflow=block;blockSpacing=1;whiteSpace=wrap;rhombus;whiteSpace=wrap;fontSize=16.7;fontColor=#333333;align=center;spacing=3.8;strokeColor=#5e5e5e;strokeOpacity=100;fillOpacity=100;rounded=1;absoluteArcSize=1;arcSize=9;fillColor=#19967d;strokeWidth=2.3;" vertex="1" parent="1">
            <mxGeometry x="520" y="610" width="103" height="78" as="geometry" />
          </mxCell>
        </UserObject>
        <UserObject label="trabajan" lucidchartObjectId="r_~rVMKI534D" id="lNvT-IO2UylSkOYxrjQw-7">
          <mxCell style="html=1;overflow=block;blockSpacing=1;whiteSpace=wrap;rhombus;whiteSpace=wrap;fontSize=16.7;fontColor=#333333;align=center;spacing=3.8;strokeColor=#5e5e5e;strokeOpacity=100;fillOpacity=100;rounded=1;absoluteArcSize=1;arcSize=9;fillColor=#19967d;strokeWidth=2.3;" vertex="1" parent="1">
            <mxGeometry x="1055" y="382" width="103" height="78" as="geometry" />
          </mxCell>
        </UserObject>
        <UserObject label="realizan" lucidchartObjectId="S.~rIXkGB5Hu" id="lNvT-IO2UylSkOYxrjQw-8">
          <mxCell style="html=1;overflow=block;blockSpacing=1;whiteSpace=wrap;rhombus;whiteSpace=wrap;fontSize=16.7;fontColor=#333333;align=center;spacing=3.8;strokeColor=#5e5e5e;strokeOpacity=100;fillOpacity=100;rounded=1;absoluteArcSize=1;arcSize=9;fillColor=#19967d;strokeWidth=2.3;" vertex="1" parent="1">
            <mxGeometry x="865" y="463" width="103" height="78" as="geometry" />
          </mxCell>
        </UserObject>
        <UserObject label="Venta" lucidchartObjectId="w~~rkA84B.AB" id="lNvT-IO2UylSkOYxrjQw-9">
          <mxCell style="html=1;overflow=block;blockSpacing=1;whiteSpace=wrap;;whiteSpace=wrap;fontSize=16.7;fontColor=#333333;align=center;spacing=9;strokeColor=#5e5e5e;strokeOpacity=100;fillOpacity=100;rounded=1;absoluteArcSize=1;arcSize=9;fillColor=#b2b2b2;strokeWidth=2.3;" vertex="1" parent="1">
            <mxGeometry x="771" y="610" width="103" height="78" as="geometry" />
          </mxCell>
        </UserObject>
        <UserObject label="Sucursal" lucidchartObjectId="J~~rLZL_dara" id="lNvT-IO2UylSkOYxrjQw-10">
          <mxCell style="html=1;overflow=block;blockSpacing=1;whiteSpace=wrap;;whiteSpace=wrap;fontSize=16.7;fontColor=#333333;align=center;spacing=9;strokeColor=#5e5e5e;strokeOpacity=100;fillOpacity=100;rounded=1;absoluteArcSize=1;arcSize=9;fillColor=#0c7cba;strokeWidth=2.3;" vertex="1" parent="1">
            <mxGeometry x="1249" y="382" width="103" height="78" as="geometry" />
          </mxCell>
        </UserObject>
        <UserObject label="contiene" lucidchartObjectId="Y~~r.lhszm6d" id="lNvT-IO2UylSkOYxrjQw-11">
          <mxCell style="html=1;overflow=block;blockSpacing=1;whiteSpace=wrap;rhombus;whiteSpace=wrap;fontSize=16.7;fontColor=#333333;align=center;spacing=3.8;strokeColor=#5e5e5e;strokeOpacity=100;fillOpacity=100;rounded=1;absoluteArcSize=1;arcSize=9;fillColor=#19967d;strokeWidth=2.3;" vertex="1" parent="1">
            <mxGeometry x="1247" y="610" width="103" height="78" as="geometry" />
          </mxCell>
        </UserObject>
        <UserObject label="Producto" lucidchartObjectId="eaasN99p1fRn" id="lNvT-IO2UylSkOYxrjQw-12">
          <mxCell style="html=1;overflow=block;blockSpacing=1;whiteSpace=wrap;;whiteSpace=wrap;fontSize=16.7;fontColor=#333333;align=center;spacing=9;strokeColor=#5e5e5e;strokeOpacity=100;fillOpacity=100;rounded=1;absoluteArcSize=1;arcSize=9;fillColor=#c92d39;strokeWidth=2.3;" vertex="1" parent="1">
            <mxGeometry x="1247" y="739" width="103" height="78" as="geometry" />
          </mxCell>
        </UserObject>
        <UserObject label="" lucidchartObjectId="DaasSpjniyPJ" id="lNvT-IO2UylSkOYxrjQw-13">
          <mxCell style="html=1;jettySize=18;whiteSpace=wrap;fontSize=13;strokeColor=#5E5E5E;strokeWidth=1.5;rounded=1;arcSize=12;edgeStyle=orthogonalEdgeStyle;startArrow=none;;endArrow=none;;exitX=0.5;exitY=1.014;exitPerimeter=0;entryX=0.01;entryY=0.5;entryPerimeter=0;" edge="1" parent="1" source="lNvT-IO2UylSkOYxrjQw-1" target="lNvT-IO2UylSkOYxrjQw-6">
            <mxGeometry width="100" height="100" relative="1" as="geometry">
              <Array as="points">
                <mxPoint x="462" y="649" />
              </Array>
            </mxGeometry>
          </mxCell>
        </UserObject>
        <UserObject label="" lucidchartObjectId="ubastmIhL78Z" id="lNvT-IO2UylSkOYxrjQw-14">
          <mxCell style="html=1;jettySize=18;whiteSpace=wrap;fontSize=13;strokeColor=#5E5E5E;strokeWidth=1.5;rounded=1;arcSize=12;edgeStyle=orthogonalEdgeStyle;startArrow=none;;endArrow=none;;exitX=0.99;exitY=0.5;exitPerimeter=0;entryX=-0.011;entryY=0.5;entryPerimeter=0;" edge="1" parent="1" source="lNvT-IO2UylSkOYxrjQw-6" target="lNvT-IO2UylSkOYxrjQw-9">
            <mxGeometry width="100" height="100" relative="1" as="geometry">
              <Array as="points" />
            </mxGeometry>
          </mxCell>
        </UserObject>
        <UserObject label="" lucidchartObjectId="DbaslXkYM74k" id="lNvT-IO2UylSkOYxrjQw-15">
          <mxCell style="html=1;jettySize=18;whiteSpace=wrap;fontSize=13;strokeColor=#5E5E5E;strokeWidth=1.5;rounded=1;arcSize=12;edgeStyle=orthogonalEdgeStyle;startArrow=none;;endArrow=none;;exitX=0.5;exitY=1.014;exitPerimeter=0;entryX=0.5;entryY=0.007;entryPerimeter=0;" edge="1" parent="1" source="lNvT-IO2UylSkOYxrjQw-4" target="lNvT-IO2UylSkOYxrjQw-8">
            <mxGeometry width="100" height="100" relative="1" as="geometry">
              <Array as="points" />
            </mxGeometry>
          </mxCell>
        </UserObject>
        <UserObject label="" lucidchartObjectId="HbasHDW0ht81" id="lNvT-IO2UylSkOYxrjQw-16">
          <mxCell style="html=1;jettySize=18;whiteSpace=wrap;fontSize=13;strokeColor=#5E5E5E;strokeWidth=1.5;rounded=1;arcSize=12;edgeStyle=orthogonalEdgeStyle;startArrow=none;;endArrow=none;;exitX=0;exitY=0.5;entryX=0.5;entryY=-0.014;entryPerimeter=0;exitDx=0;exitDy=0;" edge="1" parent="1" source="lNvT-IO2UylSkOYxrjQw-8" target="lNvT-IO2UylSkOYxrjQw-9">
            <mxGeometry width="100" height="100" relative="1" as="geometry">
              <Array as="points">
                <mxPoint x="823" y="502" />
                <mxPoint x="823" y="576" />
              </Array>
            </mxGeometry>
          </mxCell>
        </UserObject>
        <UserObject label="" lucidchartObjectId=".bas~Ad.Ewc_" id="lNvT-IO2UylSkOYxrjQw-17">
          <mxCell style="html=1;jettySize=18;whiteSpace=wrap;fontSize=13;strokeColor=#5E5E5E;strokeWidth=1.5;rounded=1;arcSize=12;edgeStyle=orthogonalEdgeStyle;startArrow=none;;endArrow=none;;exitX=1.011;exitY=0.5;exitPerimeter=0;entryX=0.01;entryY=0.5;entryPerimeter=0;" edge="1" parent="1" source="lNvT-IO2UylSkOYxrjQw-9" target="lNvT-IO2UylSkOYxrjQw-11">
            <mxGeometry width="100" height="100" relative="1" as="geometry">
              <Array as="points" />
            </mxGeometry>
          </mxCell>
        </UserObject>
        <UserObject label="" lucidchartObjectId="gcasB.qN7_xb" id="lNvT-IO2UylSkOYxrjQw-18">
          <mxCell style="html=1;jettySize=18;whiteSpace=wrap;fontSize=13;strokeColor=#5E5E5E;strokeWidth=1.5;rounded=1;arcSize=12;edgeStyle=orthogonalEdgeStyle;startArrow=none;;endArrow=none;;exitX=0.99;exitY=0.5;exitPerimeter=0;entryX=-0.011;entryY=0.5;entryPerimeter=0;" edge="1" parent="1" source="lNvT-IO2UylSkOYxrjQw-7" target="lNvT-IO2UylSkOYxrjQw-10">
            <mxGeometry width="100" height="100" relative="1" as="geometry">
              <Array as="points" />
            </mxGeometry>
          </mxCell>
        </UserObject>
        <UserObject label="" lucidchartObjectId="ncasRH_GHb3e" id="lNvT-IO2UylSkOYxrjQw-19">
          <mxCell style="html=1;jettySize=18;whiteSpace=wrap;fontSize=13;strokeColor=#5E5E5E;strokeWidth=1.5;rounded=1;arcSize=12;edgeStyle=orthogonalEdgeStyle;startArrow=none;;endArrow=none;;exitX=1.011;exitY=0.5;exitPerimeter=0;entryX=0.01;entryY=0.5;entryPerimeter=0;" edge="1" parent="1" source="lNvT-IO2UylSkOYxrjQw-4" target="lNvT-IO2UylSkOYxrjQw-7">
            <mxGeometry width="100" height="100" relative="1" as="geometry">
              <Array as="points" />
            </mxGeometry>
          </mxCell>
        </UserObject>
        <UserObject label="" lucidchartObjectId="wcasFsoconbS" id="lNvT-IO2UylSkOYxrjQw-20">
          <mxCell style="html=1;jettySize=18;whiteSpace=wrap;fontSize=13;strokeColor=#5E5E5E;strokeWidth=1.5;rounded=1;arcSize=12;edgeStyle=orthogonalEdgeStyle;startArrow=none;;endArrow=none;;exitX=0.5;exitY=0.993;exitPerimeter=0;entryX=0.5;entryY=-0.014;entryPerimeter=0;" edge="1" parent="1" source="lNvT-IO2UylSkOYxrjQw-11" target="lNvT-IO2UylSkOYxrjQw-12">
            <mxGeometry width="100" height="100" relative="1" as="geometry">
              <Array as="points" />
            </mxGeometry>
          </mxCell>
        </UserObject>
        <UserObject label="Nro. de Factura" lucidchartObjectId="idaswfo~JIFT" id="lNvT-IO2UylSkOYxrjQw-21">
          <mxCell style="html=1;overflow=block;blockSpacing=1;whiteSpace=wrap;ellipse;whiteSpace=wrap;fontSize=16.7;fontColor=#333333;align=center;spacing=3.8;strokeColor=#5e5e5e;strokeOpacity=100;rounded=1;absoluteArcSize=1;arcSize=9;strokeWidth=2.3;" vertex="1" parent="1">
            <mxGeometry x="617" y="739" width="103" height="52" as="geometry" />
          </mxCell>
        </UserObject>
        <UserObject label="Fecha" lucidchartObjectId="rdas.rtJI_uU" id="lNvT-IO2UylSkOYxrjQw-22">
          <mxCell style="html=1;overflow=block;blockSpacing=1;whiteSpace=wrap;ellipse;whiteSpace=wrap;fontSize=16.7;fontColor=#333333;align=center;spacing=3.8;strokeColor=#5e5e5e;strokeOpacity=100;rounded=1;absoluteArcSize=1;arcSize=9;strokeWidth=2.3;" vertex="1" parent="1">
            <mxGeometry x="617" y="804" width="103" height="52" as="geometry" />
          </mxCell>
        </UserObject>
        <UserObject label="Cliente" lucidchartObjectId="ydasV.SG~PUX" id="lNvT-IO2UylSkOYxrjQw-23">
          <mxCell style="html=1;overflow=block;blockSpacing=1;whiteSpace=wrap;ellipse;whiteSpace=wrap;fontSize=16.7;fontColor=#333333;align=center;spacing=3.8;strokeColor=#5e5e5e;strokeOpacity=100;rounded=1;absoluteArcSize=1;arcSize=9;strokeWidth=2.3;" vertex="1" parent="1">
            <mxGeometry x="694" y="869" width="103" height="52" as="geometry" />
          </mxCell>
        </UserObject>
        <UserObject label="Productos vendidos" lucidchartObjectId="DdasFREI3Bot" id="lNvT-IO2UylSkOYxrjQw-24">
          <mxCell style="html=1;overflow=block;blockSpacing=1;whiteSpace=wrap;ellipse;whiteSpace=wrap;fontSize=16.7;fontColor=#333333;align=center;spacing=3.8;strokeColor=#5e5e5e;strokeOpacity=100;rounded=1;absoluteArcSize=1;arcSize=9;strokeWidth=2.3;" vertex="1" parent="1">
            <mxGeometry x="810" y="869" width="103" height="52" as="geometry" />
          </mxCell>
        </UserObject>
        <UserObject label="Total de ventas" lucidchartObjectId="IdasaO6NhcCj" id="lNvT-IO2UylSkOYxrjQw-25">
          <mxCell style="html=1;overflow=block;blockSpacing=1;whiteSpace=wrap;ellipse;whiteSpace=wrap;fontSize=16.7;fontColor=#333333;align=center;spacing=3.8;strokeColor=#5e5e5e;strokeOpacity=100;rounded=1;absoluteArcSize=1;arcSize=9;strokeWidth=2.3;" vertex="1" parent="1">
            <mxGeometry x="926" y="804" width="103" height="52" as="geometry" />
          </mxCell>
        </UserObject>
        <UserObject label="Vendedor" lucidchartObjectId="VdassFrSxch1" id="lNvT-IO2UylSkOYxrjQw-26">
          <mxCell style="html=1;overflow=block;blockSpacing=1;whiteSpace=wrap;ellipse;whiteSpace=wrap;fontSize=16.7;fontColor=#333333;align=center;spacing=3.8;strokeColor=#5e5e5e;strokeOpacity=100;rounded=1;absoluteArcSize=1;arcSize=9;strokeWidth=2.3;" vertex="1" parent="1">
            <mxGeometry x="926" y="739" width="103" height="52" as="geometry" />
          </mxCell>
        </UserObject>
        <UserObject label="" lucidchartObjectId="weasCayyVRty" id="lNvT-IO2UylSkOYxrjQw-27">
          <mxCell style="html=1;jettySize=18;whiteSpace=wrap;fontSize=13;strokeColor=#5E5E5E;strokeWidth=1.5;rounded=1;arcSize=12;edgeStyle=orthogonalEdgeStyle;startArrow=none;;endArrow=none;;exitX=0.5;exitY=1.014;exitPerimeter=0;entryX=1.011;entryY=0.5;entryPerimeter=0;" edge="1" parent="1" source="lNvT-IO2UylSkOYxrjQw-9" target="lNvT-IO2UylSkOYxrjQw-21">
            <mxGeometry width="100" height="100" relative="1" as="geometry">
              <Array as="points">
                <mxPoint x="822" y="765" />
              </Array>
            </mxGeometry>
          </mxCell>
        </UserObject>
        <UserObject label="" lucidchartObjectId="JeasG9zDD0AY" id="lNvT-IO2UylSkOYxrjQw-28">
          <mxCell style="html=1;jettySize=18;whiteSpace=wrap;fontSize=13;strokeColor=#5E5E5E;strokeWidth=1.5;rounded=1;arcSize=12;edgeStyle=orthogonalEdgeStyle;startArrow=none;;endArrow=none;;exitX=-0.011;exitY=0.857;exitPerimeter=0;entryX=0.5;entryY=-0.022;entryPerimeter=0;" edge="1" parent="1" source="lNvT-IO2UylSkOYxrjQw-9" target="lNvT-IO2UylSkOYxrjQw-23">
            <mxGeometry width="100" height="100" relative="1" as="geometry">
              <Array as="points">
                <mxPoint x="746" y="677" />
                <mxPoint x="746" y="779" />
              </Array>
            </mxGeometry>
          </mxCell>
        </UserObject>
        <UserObject label="" lucidchartObjectId="QeasRcU.HWFP" id="lNvT-IO2UylSkOYxrjQw-29">
          <mxCell style="html=1;jettySize=18;whiteSpace=wrap;fontSize=13;strokeColor=#5E5E5E;strokeWidth=1.5;rounded=1;arcSize=12;edgeStyle=orthogonalEdgeStyle;startArrow=none;;endArrow=none;;exitX=0.249;exitY=1.014;exitPerimeter=0;entryX=1.011;entryY=0.5;entryPerimeter=0;" edge="1" parent="1" source="lNvT-IO2UylSkOYxrjQw-9" target="lNvT-IO2UylSkOYxrjQw-22">
            <mxGeometry width="100" height="100" relative="1" as="geometry">
              <Array as="points">
                <mxPoint x="797" y="830" />
              </Array>
            </mxGeometry>
          </mxCell>
        </UserObject>
        <UserObject label="" lucidchartObjectId="2eas3cZ9LcE4" id="lNvT-IO2UylSkOYxrjQw-30">
          <mxCell style="html=1;jettySize=18;whiteSpace=wrap;fontSize=13;strokeColor=#5E5E5E;strokeWidth=1.5;rounded=1;arcSize=12;edgeStyle=orthogonalEdgeStyle;startArrow=none;;endArrow=none;;exitX=0.676;exitY=1.014;exitPerimeter=0;entryX=0.5;entryY=-0.022;entryPerimeter=0;" edge="1" parent="1" source="lNvT-IO2UylSkOYxrjQw-9" target="lNvT-IO2UylSkOYxrjQw-24">
            <mxGeometry width="100" height="100" relative="1" as="geometry">
              <Array as="points" />
            </mxGeometry>
          </mxCell>
        </UserObject>
        <UserObject label="" lucidchartObjectId="-eas6tPLlD60" id="lNvT-IO2UylSkOYxrjQw-31">
          <mxCell style="html=1;jettySize=18;whiteSpace=wrap;fontSize=13;strokeColor=#5E5E5E;strokeWidth=1.5;rounded=1;arcSize=12;edgeStyle=orthogonalEdgeStyle;startArrow=none;;endArrow=none;;exitX=0.851;exitY=1.014;exitPerimeter=0;entryX=-0.011;entryY=0.5;entryPerimeter=0;" edge="1" parent="1" source="lNvT-IO2UylSkOYxrjQw-9" target="lNvT-IO2UylSkOYxrjQw-25">
            <mxGeometry width="100" height="100" relative="1" as="geometry">
              <Array as="points">
                <mxPoint x="859" y="712" />
                <mxPoint x="905" y="712" />
                <mxPoint x="905" y="830" />
              </Array>
            </mxGeometry>
          </mxCell>
        </UserObject>
        <UserObject label="" lucidchartObjectId="cfasVv29Jl2U" id="lNvT-IO2UylSkOYxrjQw-32">
          <mxCell style="html=1;jettySize=18;whiteSpace=wrap;fontSize=13;strokeColor=#5E5E5E;strokeWidth=1.5;rounded=1;arcSize=12;edgeStyle=orthogonalEdgeStyle;startArrow=none;;endArrow=none;;exitX=1.011;exitY=0.756;exitPerimeter=0;entryX=0.5;entryY=-0.022;entryPerimeter=0;" edge="1" parent="1" source="lNvT-IO2UylSkOYxrjQw-9" target="lNvT-IO2UylSkOYxrjQw-26">
            <mxGeometry width="100" height="100" relative="1" as="geometry">
              <Array as="points" />
            </mxGeometry>
          </mxCell>
        </UserObject>
        <UserObject label="Código" lucidchartObjectId="Bgas45K8Ub-h" id="lNvT-IO2UylSkOYxrjQw-33">
          <mxCell style="html=1;overflow=block;blockSpacing=1;whiteSpace=wrap;ellipse;whiteSpace=wrap;fontSize=16.7;fontColor=#333333;align=center;spacing=3.8;strokeColor=#5e5e5e;strokeOpacity=100;rounded=1;absoluteArcSize=1;arcSize=9;strokeWidth=2.3;" vertex="1" parent="1">
            <mxGeometry x="1133" y="484" width="103" height="52" as="geometry" />
          </mxCell>
        </UserObject>
        <UserObject label="Ciudad" lucidchartObjectId="Sgas62iVYF4b" id="lNvT-IO2UylSkOYxrjQw-34">
          <mxCell style="html=1;overflow=block;blockSpacing=1;whiteSpace=wrap;ellipse;whiteSpace=wrap;fontSize=16.7;fontColor=#333333;align=center;spacing=3.8;strokeColor=#5e5e5e;strokeOpacity=100;rounded=1;absoluteArcSize=1;arcSize=9;strokeWidth=2.3;" vertex="1" parent="1">
            <mxGeometry x="1249" y="502" width="103" height="52" as="geometry" />
          </mxCell>
        </UserObject>
        <UserObject label="Región" lucidchartObjectId="Wgas.tH7tlVE" id="lNvT-IO2UylSkOYxrjQw-35">
          <mxCell style="html=1;overflow=block;blockSpacing=1;whiteSpace=wrap;ellipse;whiteSpace=wrap;fontSize=16.7;fontColor=#333333;align=center;spacing=3.8;strokeColor=#5e5e5e;strokeOpacity=100;rounded=1;absoluteArcSize=1;arcSize=9;strokeWidth=2.3;" vertex="1" parent="1">
            <mxGeometry x="1378" y="471" width="103" height="52" as="geometry" />
          </mxCell>
        </UserObject>
        <UserObject label="" lucidchartObjectId="2gasQ3dyUUVd" id="lNvT-IO2UylSkOYxrjQw-36">
          <mxCell style="html=1;jettySize=18;whiteSpace=wrap;fontSize=13;strokeColor=#5E5E5E;strokeWidth=1.5;rounded=1;arcSize=12;edgeStyle=orthogonalEdgeStyle;startArrow=none;;endArrow=none;;exitX=0.207;exitY=1.014;exitPerimeter=0;entryX=0.5;entryY=-0.022;entryPerimeter=0;" edge="1" parent="1" source="lNvT-IO2UylSkOYxrjQw-10" target="lNvT-IO2UylSkOYxrjQw-33">
            <mxGeometry width="100" height="100" relative="1" as="geometry">
              <Array as="points">
                <mxPoint x="1270" y="472" />
                <mxPoint x="1184" y="472" />
              </Array>
            </mxGeometry>
          </mxCell>
        </UserObject>
        <UserObject label="" lucidchartObjectId="4gasCqVwasb8" id="lNvT-IO2UylSkOYxrjQw-37">
          <mxCell style="html=1;jettySize=18;whiteSpace=wrap;fontSize=13;strokeColor=#5E5E5E;strokeWidth=1.5;rounded=1;arcSize=12;edgeStyle=orthogonalEdgeStyle;startArrow=none;;endArrow=none;;exitX=0.5;exitY=1.014;exitPerimeter=0;entryX=0.5;entryY=-0.022;entryPerimeter=0;" edge="1" parent="1" source="lNvT-IO2UylSkOYxrjQw-10" target="lNvT-IO2UylSkOYxrjQw-34">
            <mxGeometry width="100" height="100" relative="1" as="geometry">
              <Array as="points" />
            </mxGeometry>
          </mxCell>
        </UserObject>
        <UserObject label="" lucidchartObjectId="6gasWehH6.YP" id="lNvT-IO2UylSkOYxrjQw-38">
          <mxCell style="html=1;jettySize=18;whiteSpace=wrap;fontSize=13;strokeColor=#5E5E5E;strokeWidth=1.5;rounded=1;arcSize=12;edgeStyle=orthogonalEdgeStyle;startArrow=none;;endArrow=none;;exitX=1.011;exitY=0.5;exitPerimeter=0;entryX=-0.011;entryY=0.5;entryPerimeter=0;" edge="1" parent="1" source="lNvT-IO2UylSkOYxrjQw-10" target="lNvT-IO2UylSkOYxrjQw-35">
            <mxGeometry width="100" height="100" relative="1" as="geometry">
              <Array as="points">
                <mxPoint x="1365" y="421" />
                <mxPoint x="1365" y="497" />
              </Array>
            </mxGeometry>
          </mxCell>
        </UserObject>
        <UserObject label="Modelo" lucidchartObjectId="2hasdiqrmH3_" id="lNvT-IO2UylSkOYxrjQw-39">
          <mxCell style="html=1;overflow=block;blockSpacing=1;whiteSpace=wrap;ellipse;whiteSpace=wrap;fontSize=16.7;fontColor=#333333;align=center;spacing=3.8;strokeColor=#5e5e5e;strokeOpacity=100;rounded=1;absoluteArcSize=1;arcSize=9;strokeWidth=2.3;" vertex="1" parent="1">
            <mxGeometry x="1094" y="780" width="103" height="52" as="geometry" />
          </mxCell>
        </UserObject>
        <UserObject label="Descripción" lucidchartObjectId="5hasz1Cqsl0-" id="lNvT-IO2UylSkOYxrjQw-40">
          <mxCell style="html=1;overflow=block;blockSpacing=1;whiteSpace=wrap;ellipse;whiteSpace=wrap;fontSize=16.7;fontColor=#333333;align=center;spacing=3.8;strokeColor=#5e5e5e;strokeOpacity=100;rounded=1;absoluteArcSize=1;arcSize=9;strokeWidth=2.3;" vertex="1" parent="1">
            <mxGeometry x="1094" y="869" width="103" height="52" as="geometry" />
          </mxCell>
        </UserObject>
        <UserObject label="Ficha técnica" lucidchartObjectId="-haswIRXjbUA" id="lNvT-IO2UylSkOYxrjQw-41">
          <mxCell style="html=1;overflow=block;blockSpacing=1;whiteSpace=wrap;ellipse;whiteSpace=wrap;fontSize=16.7;fontColor=#333333;align=center;spacing=3.8;strokeColor=#5e5e5e;strokeOpacity=100;rounded=1;absoluteArcSize=1;arcSize=9;strokeWidth=2.3;" vertex="1" parent="1">
            <mxGeometry x="1197" y="910" width="103" height="52" as="geometry" />
          </mxCell>
        </UserObject>
        <UserObject label="Precio" lucidchartObjectId="biashRkyMeBk" id="lNvT-IO2UylSkOYxrjQw-42">
          <mxCell style="html=1;overflow=block;blockSpacing=1;whiteSpace=wrap;ellipse;whiteSpace=wrap;fontSize=16.7;fontColor=#333333;align=center;spacing=3.8;strokeColor=#5e5e5e;strokeOpacity=100;rounded=1;absoluteArcSize=1;arcSize=9;strokeWidth=2.3;" vertex="1" parent="1">
            <mxGeometry x="1313" y="910" width="103" height="52" as="geometry" />
          </mxCell>
        </UserObject>
        <UserObject label="Stock" lucidchartObjectId="ziasl7MEjxtF" id="lNvT-IO2UylSkOYxrjQw-43">
          <mxCell style="html=1;overflow=block;blockSpacing=1;whiteSpace=wrap;ellipse;whiteSpace=wrap;fontSize=16.7;fontColor=#333333;align=center;spacing=3.8;strokeColor=#5e5e5e;strokeOpacity=100;rounded=1;absoluteArcSize=1;arcSize=9;strokeWidth=2.3;" vertex="1" parent="1">
            <mxGeometry x="1417" y="869" width="103" height="52" as="geometry" />
          </mxCell>
        </UserObject>
        <UserObject label="Marca" lucidchartObjectId="Gias_TtcBqdY" id="lNvT-IO2UylSkOYxrjQw-44">
          <mxCell style="html=1;overflow=block;blockSpacing=1;whiteSpace=wrap;ellipse;whiteSpace=wrap;fontSize=16.7;fontColor=#333333;align=center;spacing=3.8;strokeColor=#5e5e5e;strokeOpacity=100;rounded=1;absoluteArcSize=1;arcSize=9;strokeWidth=2.3;" vertex="1" parent="1">
            <mxGeometry x="1417" y="780" width="103" height="52" as="geometry" />
          </mxCell>
        </UserObject>
        <UserObject label="" lucidchartObjectId="vjasCf8Or6oY" id="lNvT-IO2UylSkOYxrjQw-45">
          <mxCell style="html=1;jettySize=18;whiteSpace=wrap;fontSize=13;strokeColor=#5E5E5E;strokeWidth=1.5;rounded=1;arcSize=12;edgeStyle=orthogonalEdgeStyle;startArrow=none;;endArrow=none;;exitX=-0.011;exitY=0.5;exitPerimeter=0;entryX=1.011;entryY=0.5;entryPerimeter=0;" edge="1" parent="1" source="lNvT-IO2UylSkOYxrjQw-12" target="lNvT-IO2UylSkOYxrjQw-39">
            <mxGeometry width="100" height="100" relative="1" as="geometry">
              <Array as="points" />
            </mxGeometry>
          </mxCell>
        </UserObject>
        <UserObject label="" lucidchartObjectId="xjasLNMrKZAD" id="lNvT-IO2UylSkOYxrjQw-46">
          <mxCell style="html=1;jettySize=18;whiteSpace=wrap;fontSize=13;strokeColor=#5E5E5E;strokeWidth=1.5;rounded=1;arcSize=12;edgeStyle=orthogonalEdgeStyle;startArrow=none;;endArrow=none;;exitX=0.004;exitY=0.989;exitPerimeter=0;entryX=1.011;entryY=0.5;entryPerimeter=0;" edge="1" parent="1" source="lNvT-IO2UylSkOYxrjQw-12" target="lNvT-IO2UylSkOYxrjQw-40">
            <mxGeometry width="100" height="100" relative="1" as="geometry">
              <Array as="points">
                <mxPoint x="1247" y="831" />
                <mxPoint x="1223" y="831" />
                <mxPoint x="1223" y="895" />
              </Array>
            </mxGeometry>
          </mxCell>
        </UserObject>
        <UserObject label="" lucidchartObjectId="zjas2lcmq9a7" id="lNvT-IO2UylSkOYxrjQw-47">
          <mxCell style="html=1;jettySize=18;whiteSpace=wrap;fontSize=13;strokeColor=#5E5E5E;strokeWidth=1.5;rounded=1;arcSize=12;edgeStyle=orthogonalEdgeStyle;startArrow=none;;endArrow=none;;exitX=0.5;exitY=1.014;exitPerimeter=0;entryX=0.5;entryY=-0.022;entryPerimeter=0;" edge="1" parent="1" source="lNvT-IO2UylSkOYxrjQw-12" target="lNvT-IO2UylSkOYxrjQw-41">
            <mxGeometry width="100" height="100" relative="1" as="geometry">
              <Array as="points" />
            </mxGeometry>
          </mxCell>
        </UserObject>
        <UserObject label="" lucidchartObjectId="FjasPvYm4hVT" id="lNvT-IO2UylSkOYxrjQw-48">
          <mxCell style="html=1;jettySize=18;whiteSpace=wrap;fontSize=13;strokeColor=#5E5E5E;strokeWidth=1.5;rounded=1;arcSize=12;edgeStyle=orthogonalEdgeStyle;startArrow=none;;endArrow=none;;exitX=0.82;exitY=1.014;exitPerimeter=0;entryX=0.5;entryY=-0.022;entryPerimeter=0;" edge="1" parent="1" source="lNvT-IO2UylSkOYxrjQw-12" target="lNvT-IO2UylSkOYxrjQw-42">
            <mxGeometry width="100" height="100" relative="1" as="geometry">
              <Array as="points" />
            </mxGeometry>
          </mxCell>
        </UserObject>
        <UserObject label="" lucidchartObjectId="HjasDmyd~Nvr" id="lNvT-IO2UylSkOYxrjQw-49">
          <mxCell style="html=1;jettySize=18;whiteSpace=wrap;fontSize=13;strokeColor=#5E5E5E;strokeWidth=1.5;rounded=1;arcSize=12;edgeStyle=orthogonalEdgeStyle;startArrow=none;;endArrow=none;;exitX=0.998;exitY=0.987;exitPerimeter=0;entryX=-0.011;entryY=0.5;entryPerimeter=0;" edge="1" parent="1" source="lNvT-IO2UylSkOYxrjQw-12" target="lNvT-IO2UylSkOYxrjQw-43">
            <mxGeometry width="100" height="100" relative="1" as="geometry">
              <Array as="points">
                <mxPoint x="1350" y="843" />
                <mxPoint x="1405" y="843" />
                <mxPoint x="1405" y="895" />
              </Array>
            </mxGeometry>
          </mxCell>
        </UserObject>
        <UserObject label="" lucidchartObjectId="JjassrqoPVGz" id="lNvT-IO2UylSkOYxrjQw-50">
          <mxCell style="html=1;jettySize=18;whiteSpace=wrap;fontSize=13;strokeColor=#5E5E5E;strokeWidth=1.5;rounded=1;arcSize=12;edgeStyle=orthogonalEdgeStyle;startArrow=none;;endArrow=none;;exitX=1.011;exitY=0.5;exitPerimeter=0;entryX=-0.011;entryY=0.5;entryPerimeter=0;" edge="1" parent="1" source="lNvT-IO2UylSkOYxrjQw-12" target="lNvT-IO2UylSkOYxrjQw-44">
            <mxGeometry width="100" height="100" relative="1" as="geometry">
              <Array as="points" />
            </mxGeometry>
          </mxCell>
        </UserObject>
        <UserObject label="Cédula" lucidchartObjectId="OkasMO0mrVSF" id="lNvT-IO2UylSkOYxrjQw-51">
          <mxCell style="html=1;overflow=block;blockSpacing=1;whiteSpace=wrap;ellipse;whiteSpace=wrap;fontSize=16.7;fontColor=#333333;align=center;spacing=3.8;strokeColor=#5e5e5e;strokeOpacity=100;rounded=1;absoluteArcSize=1;arcSize=9;strokeWidth=2.3;" vertex="1" parent="1">
            <mxGeometry x="230" y="317" width="103" height="52" as="geometry" />
          </mxCell>
        </UserObject>
        <UserObject label="RUC" lucidchartObjectId="Xkas3Na0liJP" id="lNvT-IO2UylSkOYxrjQw-52">
          <mxCell style="html=1;overflow=block;blockSpacing=1;whiteSpace=wrap;ellipse;whiteSpace=wrap;fontSize=16.7;fontColor=#333333;align=center;spacing=3.8;strokeColor=#5e5e5e;strokeOpacity=100;rounded=1;absoluteArcSize=1;arcSize=9;strokeWidth=2.3;" vertex="1" parent="1">
            <mxGeometry x="230" y="242" width="103" height="52" as="geometry" />
          </mxCell>
        </UserObject>
        <UserObject label="Nombre" lucidchartObjectId="ZkasmXPGxgw3" id="lNvT-IO2UylSkOYxrjQw-53">
          <mxCell style="html=1;overflow=block;blockSpacing=1;whiteSpace=wrap;ellipse;whiteSpace=wrap;fontSize=16.7;fontColor=#333333;align=center;spacing=3.8;strokeColor=#5e5e5e;strokeOpacity=100;rounded=1;absoluteArcSize=1;arcSize=9;strokeWidth=2.3;" vertex="1" parent="1">
            <mxGeometry x="230" y="167" width="103" height="52" as="geometry" />
          </mxCell>
        </UserObject>
        <UserObject label="Vendedor" lucidchartObjectId="3kasnaMXPjSH" id="lNvT-IO2UylSkOYxrjQw-54">
          <mxCell style="html=1;overflow=block;blockSpacing=1;whiteSpace=wrap;ellipse;whiteSpace=wrap;fontSize=16.7;fontColor=#333333;align=center;spacing=3.8;strokeColor=#5e5e5e;strokeOpacity=100;rounded=1;absoluteArcSize=1;arcSize=9;strokeWidth=2.3;" vertex="1" parent="1">
            <mxGeometry x="333" y="137" width="103" height="52" as="geometry" />
          </mxCell>
        </UserObject>
        <UserObject label="Email" lucidchartObjectId="7kasX9iqf9ai" id="lNvT-IO2UylSkOYxrjQw-55">
          <mxCell style="html=1;overflow=block;blockSpacing=1;whiteSpace=wrap;ellipse;whiteSpace=wrap;fontSize=16.7;fontColor=#333333;align=center;spacing=3.8;strokeColor=#5e5e5e;strokeOpacity=100;rounded=1;absoluteArcSize=1;arcSize=9;strokeWidth=2.3;" vertex="1" parent="1">
            <mxGeometry x="455" y="152" width="103" height="52" as="geometry" />
          </mxCell>
        </UserObject>
        <UserObject label="Dirección" lucidchartObjectId="alasiDhO98cg" id="lNvT-IO2UylSkOYxrjQw-56">
          <mxCell style="html=1;overflow=block;blockSpacing=1;whiteSpace=wrap;ellipse;whiteSpace=wrap;fontSize=16.7;fontColor=#333333;align=center;spacing=3.8;strokeColor=#5e5e5e;strokeOpacity=100;rounded=1;absoluteArcSize=1;arcSize=9;strokeWidth=2.3;" vertex="1" parent="1">
            <mxGeometry x="560" y="182" width="103" height="52" as="geometry" />
          </mxCell>
        </UserObject>
        <UserObject label="Celular" lucidchartObjectId="flasQuFK1A92" id="lNvT-IO2UylSkOYxrjQw-57">
          <mxCell style="html=1;overflow=block;blockSpacing=1;whiteSpace=wrap;ellipse;whiteSpace=wrap;fontSize=16.7;fontColor=#333333;align=center;spacing=3.8;strokeColor=#5e5e5e;strokeOpacity=100;rounded=1;absoluteArcSize=1;arcSize=9;strokeWidth=2.3;" vertex="1" parent="1">
            <mxGeometry x="558" y="257" width="103" height="52" as="geometry" />
          </mxCell>
        </UserObject>
        <UserObject label="" lucidchartObjectId=".lasZOJow5p9" id="lNvT-IO2UylSkOYxrjQw-58">
          <mxCell style="html=1;jettySize=18;whiteSpace=wrap;fontSize=13;strokeColor=#5E5E5E;strokeWidth=1.5;rounded=1;arcSize=12;startArrow=none;;endArrow=none;endFill=0;;exitX=-0.011;exitY=0.5;exitPerimeter=0;entryX=1.011;entryY=0.5;entryPerimeter=0;startFill=0;edgeStyle=orthogonalEdgeStyle;" edge="1" parent="1" source="lNvT-IO2UylSkOYxrjQw-1" target="lNvT-IO2UylSkOYxrjQw-51">
            <mxGeometry width="100" height="100" relative="1" as="geometry" />
          </mxCell>
        </UserObject>
        <UserObject label="" lucidchartObjectId="hmasFQeMP.kb" id="lNvT-IO2UylSkOYxrjQw-59">
          <mxCell style="html=1;jettySize=18;whiteSpace=wrap;fontSize=13;strokeColor=#5E5E5E;strokeWidth=1.5;rounded=1;arcSize=12;startArrow=none;;endArrow=none;endFill=0;;entryX=1.011;entryY=0.5;entryPerimeter=0;startFill=0;edgeStyle=orthogonalEdgeStyle;exitX=-0.001;exitY=0.132;exitDx=0;exitDy=0;exitPerimeter=0;" edge="1" parent="1" source="lNvT-IO2UylSkOYxrjQw-1" target="lNvT-IO2UylSkOYxrjQw-52">
            <mxGeometry width="100" height="100" relative="1" as="geometry">
              <mxPoint x="415" y="316" as="sourcePoint" />
            </mxGeometry>
          </mxCell>
        </UserObject>
        <UserObject label="" lucidchartObjectId="omas67Cn0qr." id="lNvT-IO2UylSkOYxrjQw-60">
          <mxCell style="html=1;jettySize=18;whiteSpace=wrap;fontSize=13;strokeColor=#5E5E5E;strokeWidth=1.5;rounded=1;arcSize=12;startArrow=none;;endArrow=none;endFill=0;;exitX=0.238;exitY=-0.014;exitPerimeter=0;entryX=1.011;entryY=0.5;entryPerimeter=0;startFill=0;edgeStyle=orthogonalEdgeStyle;" edge="1" parent="1" source="lNvT-IO2UylSkOYxrjQw-1" target="lNvT-IO2UylSkOYxrjQw-53">
            <mxGeometry width="100" height="100" relative="1" as="geometry">
              <Array as="points">
                <mxPoint x="434" y="302" />
                <mxPoint x="365" y="302" />
                <mxPoint x="365" y="193" />
              </Array>
            </mxGeometry>
          </mxCell>
        </UserObject>
        <UserObject label="Cédula" lucidchartObjectId="alasiDhO98cg" id="lNvT-IO2UylSkOYxrjQw-65">
          <mxCell style="html=1;overflow=block;blockSpacing=1;whiteSpace=wrap;ellipse;whiteSpace=wrap;fontSize=16.7;fontColor=#333333;align=center;spacing=3.8;strokeColor=#5e5e5e;strokeOpacity=100;rounded=1;absoluteArcSize=1;arcSize=9;strokeWidth=2.3;" vertex="1" parent="1">
            <mxGeometry x="745" y="265" width="103" height="52" as="geometry" />
          </mxCell>
        </UserObject>
        <UserObject label="Nombre" lucidchartObjectId="alasiDhO98cg" id="lNvT-IO2UylSkOYxrjQw-66">
          <mxCell style="html=1;overflow=block;blockSpacing=1;whiteSpace=wrap;ellipse;whiteSpace=wrap;fontSize=16.7;fontColor=#333333;align=center;spacing=3.8;strokeColor=#5e5e5e;strokeOpacity=100;rounded=1;absoluteArcSize=1;arcSize=9;strokeWidth=2.3;" vertex="1" parent="1">
            <mxGeometry x="775" y="204" width="103" height="52" as="geometry" />
          </mxCell>
        </UserObject>
        <UserObject label="Apellido" lucidchartObjectId="alasiDhO98cg" id="lNvT-IO2UylSkOYxrjQw-67">
          <mxCell style="html=1;overflow=block;blockSpacing=1;whiteSpace=wrap;ellipse;whiteSpace=wrap;fontSize=16.7;fontColor=#333333;align=center;spacing=3.8;strokeColor=#5e5e5e;strokeOpacity=100;rounded=1;absoluteArcSize=1;arcSize=9;strokeWidth=2.3;" vertex="1" parent="1">
            <mxGeometry x="865" y="167" width="103" height="52" as="geometry" />
          </mxCell>
        </UserObject>
        <UserObject label="Cargo" lucidchartObjectId="alasiDhO98cg" id="lNvT-IO2UylSkOYxrjQw-68">
          <mxCell style="html=1;overflow=block;blockSpacing=1;whiteSpace=wrap;ellipse;whiteSpace=wrap;fontSize=16.7;fontColor=#333333;align=center;spacing=3.8;strokeColor=#5e5e5e;strokeOpacity=100;rounded=1;absoluteArcSize=1;arcSize=9;strokeWidth=2.3;" vertex="1" parent="1">
            <mxGeometry x="968" y="189" width="103" height="52" as="geometry" />
          </mxCell>
        </UserObject>
        <UserObject label="Sucursal" lucidchartObjectId="alasiDhO98cg" id="lNvT-IO2UylSkOYxrjQw-69">
          <mxCell style="html=1;overflow=block;blockSpacing=1;whiteSpace=wrap;ellipse;whiteSpace=wrap;fontSize=16.7;fontColor=#333333;align=center;spacing=3.8;strokeColor=#5e5e5e;strokeOpacity=100;rounded=1;absoluteArcSize=1;arcSize=9;strokeWidth=2.3;" vertex="1" parent="1">
            <mxGeometry x="1015" y="242" width="103" height="52" as="geometry" />
          </mxCell>
        </UserObject>
        <UserObject label="Ventas" lucidchartObjectId="alasiDhO98cg" id="lNvT-IO2UylSkOYxrjQw-70">
          <mxCell style="html=1;overflow=block;blockSpacing=1;whiteSpace=wrap;ellipse;whiteSpace=wrap;fontSize=16.7;fontColor=#333333;align=center;spacing=3.8;strokeColor=#5e5e5e;strokeOpacity=100;rounded=1;absoluteArcSize=1;arcSize=9;strokeWidth=2.3;" vertex="1" parent="1">
            <mxGeometry x="1015" y="302" width="103" height="52" as="geometry" />
          </mxCell>
        </UserObject>
        <mxCell id="lNvT-IO2UylSkOYxrjQw-78" value="&lt;font color=&quot;#ffffff&quot;&gt;&lt;span style=&quot;font-size: 14px ; background-color: rgb(51 , 51 , 255)&quot;&gt;N&lt;/span&gt;&lt;/font&gt;" style="text;html=1;resizable=0;autosize=1;align=center;verticalAlign=middle;points=[];fillColor=none;strokeColor=none;rounded=0;strokeWidth=1;" vertex="1" parent="1">
          <mxGeometry x="525" y="369" width="30" height="20" as="geometry" />
        </mxCell>
        <mxCell id="lNvT-IO2UylSkOYxrjQw-79" value="&lt;span style=&quot;font-size: 14px&quot;&gt;&lt;span style=&quot;background-color: rgb(255 , 255 , 51)&quot;&gt;M&lt;/span&gt;&lt;/span&gt;" style="text;html=1;resizable=0;autosize=1;align=center;verticalAlign=middle;points=[];fillColor=none;strokeColor=none;rounded=0;" vertex="1" parent="1">
          <mxGeometry x="825" y="369" width="30" height="20" as="geometry" />
        </mxCell>
        <mxCell id="lNvT-IO2UylSkOYxrjQw-91" value="&lt;span style=&quot;font-size: 14px ; background-color: rgb(255 , 255 , 51)&quot;&gt;N&lt;/span&gt;" style="text;html=1;resizable=0;autosize=1;align=center;verticalAlign=middle;points=[];fillColor=none;strokeColor=none;rounded=0;strokeWidth=1;" vertex="1" parent="1">
          <mxGeometry x="420" y="410" width="30" height="20" as="geometry" />
        </mxCell>
        <mxCell id="lNvT-IO2UylSkOYxrjQw-93" value="&lt;span style=&quot;font-size: 14px&quot;&gt;&lt;span style=&quot;background-color: rgb(255 , 255 , 51)&quot;&gt;M&lt;/span&gt;&lt;/span&gt;" style="text;html=1;resizable=0;autosize=1;align=center;verticalAlign=middle;points=[];fillColor=none;strokeColor=none;rounded=0;" vertex="1" parent="1">
          <mxGeometry x="736" y="620" width="30" height="20" as="geometry" />
        </mxCell>
        <mxCell id="lNvT-IO2UylSkOYxrjQw-94" value="&lt;span style=&quot;font-size: 14px ; background-color: rgb(255 , 255 , 51)&quot;&gt;M&lt;/span&gt;" style="text;html=1;resizable=0;autosize=1;align=center;verticalAlign=middle;points=[];fillColor=none;strokeColor=none;rounded=0;" vertex="1" parent="1">
          <mxGeometry x="1211" y="430" width="30" height="20" as="geometry" />
        </mxCell>
        <mxCell id="lNvT-IO2UylSkOYxrjQw-95" value="&lt;font color=&quot;#ffffff&quot;&gt;&lt;span style=&quot;font-size: 14px ; background-color: rgb(51 , 51 , 255)&quot;&gt;N&lt;/span&gt;&lt;/font&gt;" style="text;html=1;resizable=0;autosize=1;align=center;verticalAlign=middle;points=[];fillColor=none;strokeColor=none;rounded=0;strokeWidth=1;" vertex="1" parent="1">
          <mxGeometry x="973" y="362" width="30" height="20" as="geometry" />
        </mxCell>
        <UserObject label="Director" lucidchartObjectId="Wgas.tH7tlVE" id="lNvT-IO2UylSkOYxrjQw-97">
          <mxCell style="html=1;overflow=block;blockSpacing=1;whiteSpace=wrap;ellipse;whiteSpace=wrap;fontSize=16.7;fontColor=#333333;align=center;spacing=3.8;strokeColor=#5e5e5e;strokeOpacity=100;rounded=1;absoluteArcSize=1;arcSize=9;strokeWidth=2.3;" vertex="1" parent="1">
            <mxGeometry x="1378" y="389" width="103" height="52" as="geometry" />
          </mxCell>
        </UserObject>
        <UserObject label="Objetivo de ventas" lucidchartObjectId="Wgas.tH7tlVE" id="lNvT-IO2UylSkOYxrjQw-98">
          <mxCell style="html=1;overflow=block;blockSpacing=1;whiteSpace=wrap;ellipse;whiteSpace=wrap;fontSize=16.7;fontColor=#333333;align=center;spacing=3.8;strokeColor=#5e5e5e;strokeOpacity=100;rounded=1;absoluteArcSize=1;arcSize=9;strokeWidth=2.3;" vertex="1" parent="1">
            <mxGeometry x="1378" y="309" width="103" height="52" as="geometry" />
          </mxCell>
        </UserObject>
        <UserObject label="Ventas totales" lucidchartObjectId="Wgas.tH7tlVE" id="lNvT-IO2UylSkOYxrjQw-99">
          <mxCell style="html=1;overflow=block;blockSpacing=1;whiteSpace=wrap;ellipse;whiteSpace=wrap;fontSize=16.7;fontColor=#333333;align=center;spacing=3.8;strokeColor=#5e5e5e;strokeOpacity=100;rounded=1;absoluteArcSize=1;arcSize=9;strokeWidth=2.3;" vertex="1" parent="1">
            <mxGeometry x="1260" y="290" width="103" height="52" as="geometry" />
          </mxCell>
        </UserObject>
      </root>
    </mxGraphModel>
  </diagram>
</mxfile>
